<svg xmlns="http://www.w3.org/2000/svg" version="1.1" xmlns:xlink="http://www.w3.org/1999/xlink" xmlns:svgjs="http://svgjs.dev/svgjs" width="512" height="512"><svg xmlns="http://www.w3.org/2000/svg" baseProfile="tiny" version="1.2" viewBox="0 0 512 512">
  <!-- Generator: Adobe Illustrator 28.6.0, SVG Export Plug-In . SVG Version: 1.2.0 Build 709)  -->
  <g>
    <g id="SvgjsG1177">
      <g id="SvgjsG1176" data-name="Layer_1">
        <g>
          <rect y="0" width="512" height="512" rx="193.4" ry="193.4" fill="#02a676"></rect>
          <path d="M118,135.6c-1.1,5.2-1.9,10.8-1.9,16.8,0,26.5,13.4,50,33.6,64.2h0l5.2,3.4h0l36.2,22.8,20.9,13.4-20.9,13.4-36.2,22.8h0l-5.2,3.4h0c-20.2,14.2-33.6,37.7-33.6,64.2s.7,11.2,1.9,16.8c7.5,35.1,38.8,61.2,76.2,61.2s78.1-35.1,78.1-78.1-12-47.8-30.6-62l3.7-2.2,15.7-10.1,89.6,56.8c17.9-4.9,33.6-15.3,45.2-29.5l-88.9-56.8h-.4l.4-.7,88.9-56.8c-11.6-13.8-27.3-24.3-45.2-29.5l-89.6,56.8-15.7-10.1-3.7-2.2c18.7-14.2,30.6-36.6,30.6-62,0-42.9-35.1-78.1-78.1-78.1s-68.7,26.1-76.2,61.2v.7ZM201.7,322.7c17.2,3.7,29.9,18.7,29.9,36.6s-16.8,37.3-37.3,37.3-37.3-16.8-37.3-37.3,0-6,1.1-8.6c3.7-16.4,18.7-28.8,36.6-28.8s5.2,0,7.8.7h-.7ZM231.5,152c0,17.9-12.7,33.2-29.9,36.6-2.6.4-5.2.7-7.8.7-17.9,0-32.5-12.3-36.6-28.8-.7-2.6-1.1-5.6-1.1-8.6,0-20.5,16.8-37.3,37.3-37.3s37.3,16.8,37.3,37.3h.7Z" fill="#fff"></path>
        </g>
      </g>
    </g>
  </g>
</svg><style>@media (prefers-color-scheme: light) { :root { filter: none; } }
@media (prefers-color-scheme: dark) { :root { filter: none; } }
</style></svg>