<?xml version="1.0" encoding="UTF-8"?>
<svg xmlns="http://www.w3.org/2000/svg" version="1.1" viewBox="0 0 512 512">
  <defs>
    <style>
      .cls-1 {
        fill: #fff;
      }
    </style>
  </defs>
  <!-- Generator: Adobe Illustrator 28.6.0, SVG Export Plug-In . SVG Version: 1.2.0 Build 709)  -->
  <g>
    <g id="Layer_1">
      <g id="Layer_1-2" data-name="Layer_1">
        <g id="Layer_1-2">
          <path class="cls-1" d="M62.2,87.2c-1.5,7.3-2.7,15.2-2.7,23.6,0,37.2,18.8,70.2,47.2,90.2h0l7.3,4.8h0l50.8,32,29.4,18.8-29.4,18.8-50.8,32h0l-7.3,4.8h0c-28.4,19.9-47.2,53-47.2,90.2s1,15.7,2.7,23.6c10.5,49.3,54.5,86,107,86s109.7-49.3,109.7-109.7-16.9-67.1-43-87.1l5.2-3.1,22.1-14.2,125.9,79.8c25.1-6.9,47.2-21.5,63.5-41.4l-124.9-79.8h-.6l.6-1,124.9-79.8c-16.3-19.4-38.3-34.1-63.5-41.4l-125.9,79.8-22.1-14.2-5.2-3.1c26.3-19.9,43-51.4,43-87.1C278.9,49.4,229.6,0,169.2,0S72.7,36.7,62.2,86v1.3ZM179.7,350c24.2,5.2,42,26.3,42,51.4s-23.6,52.4-52.4,52.4-52.4-23.6-52.4-52.4,0-8.4,1.5-12.1c5.2-23,26.3-40.5,51.4-40.5s7.3,0,11,1h-1.1ZM221.6,110.3c0,25.1-17.8,46.6-42,51.4-3.7.6-7.3,1-11,1-25.1,0-45.7-17.3-51.4-40.5-1-3.7-1.5-7.9-1.5-12.1,0-28.8,23.6-52.4,52.4-52.4s52.4,23.6,52.4,52.4h1.1Z"/>
        </g>
      </g>
    </g>
  </g>
</svg>