<svg xmlns="http://www.w3.org/2000/svg" baseProfile="tiny" version="1.2" viewBox="0 0 411.1 137.1">
  <g>
    <g id="Layer_1">
      <g>
        <rect y="0" width="137.1" height="137.1" rx="51.8" ry="51.8" fill="#02a676"/>
        <path d="M31.6,36.3c-.3,1.4-.5,2.9-.5,4.5,0,7.1,3.6,13.4,9,17.2h0l1.4.9h0l9.7,6.1,5.6,3.6-5.6,3.6-9.7,6.1h0l-1.4.9h0c-5.4,3.8-9,10.1-9,17.2s.2,3,.5,4.5c2,9.4,10.4,16.4,20.4,16.4s20.9-9.4,20.9-20.9-3.2-12.8-8.2-16.6l1-.6,4.2-2.7,24,15.2c4.8-1.3,9-4.1,12.1-7.9l-23.8-15.2h-.1v-.2c.1,0,23.9-15.2,23.9-15.2-3.1-3.7-7.3-6.5-12.1-7.9l-24,15.2-4.2-2.7-1-.6c5-3.8,8.2-9.8,8.2-16.6,0-11.5-9.4-20.9-20.9-20.9s-18.4,7-20.4,16.4v.2ZM54,86.4c4.6,1,8,5,8,9.8s-4.5,10-10,10-10-4.5-10-10,0-1.6.3-2.3c1-4.4,5-7.7,9.8-7.7s1.4,0,2.1.2h-.2ZM62,40.7c0,4.8-3.4,8.9-8,9.8-.7.1-1.4.2-2.1.2-4.8,0-8.7-3.3-9.8-7.7-.2-.7-.3-1.5-.3-2.3,0-5.5,4.5-10,10-10s10,4.5,10,10h.2Z" fill="#fff"/>
      </g>
      <g>
        <path d="M193,96.2c-4.8,0-8.8-.7-12-2.1-3.2-1.4-5.6-3.3-7.3-5.5-1.7-2.3-2.5-4.7-2.7-7.2,0-.5.2-.8.5-1.2.3-.3.7-.5,1.2-.5h6.8c.7,0,1.2.1,1.5.4.3.3.6.6.9,1,.3,1,.9,1.9,1.8,2.9.9.9,2.1,1.7,3.6,2.3s3.4.9,5.7.9c3.7,0,6.4-.6,8.3-1.8,1.8-1.2,2.7-2.9,2.7-5s-.5-2.7-1.5-3.6c-1-.9-2.5-1.7-4.5-2.5-2-.7-4.7-1.5-8-2.3-3.8-.9-7.1-2-9.6-3.3-2.6-1.3-4.5-3-5.8-5s-2-4.5-2-7.6.8-5.6,2.4-7.9c1.6-2.3,3.9-4.1,6.9-5.5,3-1.3,6.6-2,10.7-2s6.3.4,8.8,1.3c2.6.9,4.7,2.1,6.4,3.5,1.7,1.5,3,3,3.9,4.7s1.4,3.3,1.4,4.9-.1.8-.4,1.1-.7.5-1.2.5h-7.1c-.4,0-.8-.1-1.2-.3-.4-.2-.7-.6-1-1.2-.3-1.6-1.3-2.9-3-4.1-1.7-1.1-3.9-1.7-6.5-1.7s-5,.5-6.7,1.5-2.5,2.6-2.5,4.8.4,2.6,1.3,3.6c.8.9,2.2,1.8,4.1,2.5,1.9.7,4.3,1.5,7.4,2.3,4.4,1,7.9,2.1,10.7,3.4,2.8,1.3,4.8,2.9,6.1,4.9,1.3,2,1.9,4.5,1.9,7.5s-.9,6.3-2.7,8.6c-1.8,2.4-4.4,4.2-7.6,5.5-3.3,1.3-7.1,1.9-11.5,1.9l-.2.3Z" fill="#fff"/>
        <path d="M250.6,96.2c-4.8,0-8.8-.8-12.1-2.5-3.3-1.7-5.8-4-7.6-7.1-1.7-3.1-2.7-6.8-2.9-11.2v-13.7c.2-4.3,1.2-8,3-11.1s4.3-5.5,7.6-7.2c3.3-1.7,7.3-2.5,12-2.5s6.6.5,9.4,1.4,5.1,2.2,7.1,3.8c1.9,1.6,3.5,3.5,4.5,5.7s1.6,4.5,1.7,7c0,.5,0,.8-.4,1.2-.3.3-.7.5-1.2.5h-7.3c-.6,0-1-.1-1.4-.4-.4-.3-.6-.8-.8-1.4-.8-3.4-2.2-5.7-4.2-6.9s-4.5-1.8-7.5-1.8-6.2,1-8.2,2.9c-2.1,1.9-3.2,5.1-3.3,9.5-.2,4.2-.2,8.5,0,12.9s1.3,7.6,3.3,9.5,4.8,2.9,8.2,2.9,5.5-.6,7.5-1.9c2-1.3,3.4-3.5,4.2-6.9.2-.7.4-1.2.8-1.5s.8-.4,1.4-.4h7.3c.5,0,.9.2,1.2.5.3.3.5.7.4,1.2,0,2.5-.6,4.8-1.7,7s-2.6,4-4.5,5.7c-1.9,1.6-4.3,2.9-7.1,3.8-2.8.9-5.9,1.4-9.4,1.4v-.4Z" fill="#fff"/>
        <path d="M290.4,95.4c-.5,0-.9-.2-1.3-.5-.4-.4-.5-.8-.5-1.3v-50.1c0-.5.2-.9.5-1.3s.8-.5,1.3-.5h7.2c.6,0,1,.2,1.3.5.3.4.5.8.5,1.3v50.1c0,.5-.2.9-.5,1.3-.3.4-.8.5-1.3.5h-7.2Z" fill="#fff"/>
        <path d="M316.6,95.4c-.5,0-.9-.2-1.3-.5-.4-.4-.5-.8-.5-1.4v-5.4c0-.8.2-1.4.5-1.8.3-.5.5-.8.7-1l26.8-34.6h-25.3c-.6,0-1-.2-1.3-.5-.3-.4-.5-.8-.5-1.3v-5.3c0-.6.2-1,.5-1.4s.8-.5,1.3-.5h36.7c.6,0,1,.2,1.4.5.4.4.5.8.5,1.4v5.3c0,.6-.1,1.1-.3,1.5-.2.4-.4.8-.7,1.2l-26.2,34.7h26.1c.6,0,1,.2,1.4.5.4.4.5.8.5,1.4v5.4c0,.5-.2.9-.5,1.3-.4.4-.8.5-1.4.5h-38.4Z" fill="#fff"/>
        <path d="M370.8,95.4c-.5,0-.9-.2-1.3-.5-.4-.4-.5-.8-.5-1.4v-5.4c0-.8.2-1.4.5-1.8.3-.5.5-.8.7-1l26.8-34.6h-25.3c-.6,0-1-.2-1.3-.5-.3-.4-.5-.8-.5-1.3v-5.3c0-.6.2-1,.5-1.4s.8-.5,1.3-.5h36.7c.6,0,1,.2,1.4.5.4.4.5.8.5,1.4v5.3c0,.6-.1,1.1-.3,1.5-.2.4-.4.8-.7,1.2l-26.2,34.7h26.1c.6,0,1,.2,1.4.5.4.4.5.8.5,1.4v5.4c0,.5-.2.9-.5,1.3-.4.4-.8.5-1.4.5h-38.4Z" fill="#fff"/>
      </g>
    </g>
  </g>
</svg>